# xmcd
#
# Track frame offsets:
#        150
#        20665
#        41730
#
# Disc length: 891 seconds
#
# Revision: 0
# Processed by: cddbd v1.5.1PL2 Copyright (c) Steve Scherf et al.
# Submitted via: ExactAudioCopy v0.95b1
#
DISCID=20037903
DTITLE=aki - THE CELL MIXES
DYEAR=2006
DGENRE=Rock
TTITLE0=DILEMMA
TTITLE1=ONE LOVE ONE PEACE
TTITLE2=THE BLADE
EXTD=
EXTT0=
EXTT1=
EXTT2=
PLAYORDER=
